<?xml version="1.0" encoding="iso-8859-1"?>
<!-- Generator: Adobe Illustrator 16.0.0, SVG Export Plug-In . SVG Version: 6.00 Build 0)  -->
<!DOCTYPE svg PUBLIC "-//W3C//DTD SVG 1.1//EN" "http://www.w3.org/Graphics/SVG/1.1/DTD/svg11.dtd">
<svg width="34" height="39.230769230769226" viewBox="151 168 132 152" version="1.1" xmlns="http://www.w3.org/2000/svg" xmlns:xlink="http://www.w3.org/1999/xlink">
    <g id="koch-2" stroke="none" stroke-width="1" fill="none" fill-rule="evenodd" transform="translate(167.000000, 186.000000)">
        <polygon id="Shape" stroke="#C23582" stroke-width="10" fill="#FFFFFF" points="0 29 11.1111111 29 16.6666667 19.3774955 22.2222222 29 33.3333333 29 38.8888889 19.3774955 33.3333333 9.75499103 44.4444444 9.75499103 50 0.132486541 55.5555556 9.75499103 66.6666667 9.75499103 61.1111111 19.3774955 66.6666667 29 77.7777778 29 83.3333333 19.3774955 88.8888889 29 100 29 94.4444444 38.6225045 100 48.245009 88.8888889 48.245009 83.3333333 57.8675135 88.8888889 67.4900179 100 67.4900179 94.4444444 77.1125224 100 86.7350269 88.8888889 86.7350269 83.3333333 96.3575314 77.7777778 86.7350269 66.6666667 86.7350269 61.1111111 96.3575314 66.6666667 105.980036 55.5555556 105.980036 50 115.60254 44.4444444 105.980036 33.3333333 105.980036 38.8888889 96.3575314 33.3333333 86.7350269 22.2222222 86.7350269 16.6666667 96.3575314 11.1111111 86.7350269 9.84556895e-15 86.7350269 5.55555556 77.1125224 9.84556895e-15 67.4900179 11.1111111 67.4900179 16.6666667 57.8675135 11.1111111 48.245009 2.46139224e-15 48.245009 5.55555556 38.6225045"></polygon>
    </g>
</svg>